<svg width="231" height="200" viewBox="0 0 231 200" fill="none" xmlns="http://www.w3.org/2000/svg">
<path d="M219 0C225.627 2.57703e-07 231 5.37258 231 12V130C231 168.66 199.66 200 161 200H43C36.3726 200 31 194.627 31 188V140H12C5.37258 140 3.22139e-07 134.627 0 128V73C3.22139e-07 66.3726 5.37258 61 12 61H31V12C31 5.37258 36.3726 2.57703e-07 43 0H219ZM187 70.2959L178.847 79.1016L201.847 100.397L210 91.5928L195.812 78.4541L216.781 57.4854L208.296 49L187 70.2959ZM68 50C61.3726 50 56 55.3726 56 62V88C56 94.6274 61.3726 100 68 100H94C100.627 100 106 94.6274 106 88V62C106 55.3726 100.627 50 94 50H68Z" fill="url(#paint0_linear_39_43)"/>
<defs>
<linearGradient id="paint0_linear_39_43" x1="0" y1="0" x2="231" y2="200" gradientUnits="userSpaceOnUse">
<stop stop-color="#58CC02"/>
<stop offset="1" stop-color="#368000"/>
</linearGradient>
</defs>
</svg>
