<svg width="24" height="24" viewBox="0 0 24 24" fill="none" xmlns="http://www.w3.org/2000/svg">
<path d="M12 6.50248C8.95978 6.50248 6.50621 8.95605 6.50621 11.9962C6.50621 15.0364 8.95978 17.49 12 17.49C15.0401 17.49 17.4937 15.0364 17.4937 11.9962C17.4937 8.95605 15.0401 6.50248 12 6.50248ZM12 15.5668C10.0339 15.5668 8.42943 13.9623 8.42943 11.9962C8.42943 10.0302 10.0339 8.4257 12 8.4257C13.966 8.4257 15.5705 10.0302 15.5705 11.9962C15.5705 13.9623 13.966 15.5668 12 15.5668ZM17.7187 4.99712C17.0089 4.99712 16.4357 5.57034 16.4357 6.28016C16.4357 6.98998 17.0089 7.5632 17.7187 7.5632C18.4285 7.5632 19.0018 6.99266 19.0018 6.28016C19.002 6.11161 18.9689 5.94467 18.9045 5.78891C18.8401 5.63315 18.7456 5.49163 18.6264 5.37244C18.5072 5.25326 18.3657 5.15876 18.21 5.09436C18.0542 5.02995 17.8873 4.99691 17.7187 4.99712V4.99712ZM22.7089 11.9962C22.7089 10.5177 22.7223 9.05248 22.6393 7.57659C22.5562 5.8623 22.1651 4.34087 20.9116 3.0873C19.6553 1.83105 18.1366 1.44266 16.4223 1.35962C14.9437 1.27659 13.4785 1.28998 12.0026 1.28998C10.5241 1.28998 9.05889 1.27659 7.583 1.35962C5.86871 1.44266 4.34728 1.83373 3.09371 3.0873C1.83746 4.34355 1.44907 5.8623 1.36603 7.57659C1.283 9.05516 1.29639 10.5203 1.29639 11.9962C1.29639 13.4721 1.283 14.94 1.36603 16.4159C1.44907 18.1302 1.84014 19.6516 3.09371 20.9052C4.34996 22.1614 5.86871 22.5498 7.583 22.6328C9.06157 22.7159 10.5267 22.7025 12.0026 22.7025C13.4812 22.7025 14.9464 22.7159 16.4223 22.6328C18.1366 22.5498 19.658 22.1587 20.9116 20.9052C22.1678 19.6489 22.5562 18.1302 22.6393 16.4159C22.725 14.94 22.7089 13.4748 22.7089 11.9962V11.9962ZM20.3518 18.3123C20.1562 18.7998 19.9205 19.1641 19.5428 19.5391C19.1651 19.9168 18.8035 20.1525 18.316 20.348C16.9071 20.9078 13.5616 20.7819 12 20.7819C10.4384 20.7819 7.09014 20.9078 5.68121 20.3507C5.19371 20.1552 4.82943 19.9194 4.45443 19.5418C4.07675 19.1641 3.84103 18.8025 3.6455 18.315C3.08835 16.9034 3.21425 13.5578 3.21425 11.9962C3.21425 10.4346 3.08835 7.08641 3.6455 5.67748C3.84103 5.18998 4.07675 4.8257 4.45443 4.4507C4.8321 4.0757 5.19371 3.8373 5.68121 3.64177C7.09014 3.08462 10.4384 3.21052 12 3.21052C13.5616 3.21052 16.9098 3.08462 18.3187 3.64177C18.8062 3.8373 19.1705 4.07302 19.5455 4.4507C19.9232 4.82837 20.1589 5.18998 20.3544 5.67748C20.9116 7.08641 20.7857 10.4346 20.7857 11.9962C20.7857 13.5578 20.9116 16.9034 20.3518 18.3123Z" fill="#58CC02"/>
</svg>
